<svg width="24" height="24" viewBox="0 0 24 24" fill="none" xmlns="http://www.w3.org/2000/svg">
<path d="M2.27719 5.24703C2.30353 5.15205 2.34834 5.0632 2.40905 4.98555C2.46976 4.90791 2.54518 4.84299 2.63099 4.79451C2.71681 4.74603 2.81134 4.71494 2.90917 4.70302C3.00701 4.69109 3.10624 4.69857 3.20119 4.72503L4.90419 5.19703C5.35553 5.3196 5.76741 5.55703 6.09969 5.88615C6.43197 6.21528 6.67331 6.62488 6.80019 7.07503L8.95119 14.861L9.10919 15.407C9.74219 15.644 10.2862 16.087 10.6312 16.675L10.9412 16.579L19.8112 14.274C19.9065 14.2492 20.0058 14.2434 20.1034 14.257C20.201 14.2705 20.2949 14.3032 20.3799 14.353C20.4649 14.4029 20.5392 14.469 20.5986 14.5476C20.658 14.6262 20.7014 14.7157 20.7262 14.811C20.751 14.9064 20.7568 15.0057 20.7433 15.1032C20.7297 15.2008 20.6971 15.2948 20.6472 15.3797C20.5973 15.4647 20.5312 15.539 20.4526 15.5984C20.374 15.6579 20.2845 15.7012 20.1892 15.726L11.3512 18.022L11.0232 18.124C11.0162 19.394 10.1392 20.555 8.81319 20.9C7.22219 21.314 5.58719 20.398 5.16119 18.856C4.73519 17.313 5.67919 15.727 7.26919 15.314C7.34753 15.2938 7.42659 15.2765 7.50619 15.262L5.35419 7.47403C5.29626 7.27394 5.18753 7.09225 5.03858 6.94663C4.88963 6.80101 4.70553 6.69642 4.50419 6.64303L2.80019 6.17003C2.70523 6.14378 2.61638 6.09908 2.5387 6.03849C2.46102 5.97789 2.39604 5.90259 2.34747 5.81687C2.29891 5.73116 2.2677 5.63672 2.25564 5.53894C2.24358 5.44117 2.2509 5.34197 2.27719 5.24703Z" fill="#7E7E7E"/>
<path opacity="0.5" d="M9.56397 8.73L10.079 10.593C10.564 12.348 10.806 13.226 11.519 13.625C12.232 14.025 13.137 13.789 14.947 13.319L16.867 12.819C18.677 12.349 19.582 12.114 19.994 11.423C20.406 10.731 20.164 9.853 19.678 8.098L19.164 6.236C18.679 4.48 18.436 3.602 17.724 3.203C17.01 2.803 16.105 3.039 14.295 3.51L12.375 4.008C10.565 4.478 9.65997 4.714 9.24897 5.406C8.83697 6.097 9.07897 6.975 9.56397 8.73Z" fill="#7E7E7E"/>
</svg>

